<svg width="24" height="24" viewBox="0 0 24 24" fill="none" xmlns="http://www.w3.org/2000/svg">
<path d="M3 16C3 14.6193 4.11929 13.5 5.5 13.5C6.88071 13.5 8 14.6193 8 16C8 16.2473 7.9641 16.4861 7.89724 16.7117C8.44948 16.9848 9.07359 17.2261 9.75473 17.3993C10.1618 16.5705 11.0143 16 12 16C12.9763 16 13.8218 16.5596 14.2334 17.3755C14.8391 17.2132 15.4593 16.9797 16.0885 16.6617C16.0308 16.4509 16 16.2291 16 16C16 14.6193 17.1193 13.5 18.5 13.5C19.8807 13.5 21 14.6193 21 16C21 17.3807 19.8807 18.5 18.5 18.5C17.896 18.5 17.342 18.2858 16.9099 17.9292C16.0832 18.3631 15.2676 18.6692 14.4728 18.8701C14.2939 20.0753 13.2549 21 12 21C10.7505 21 9.71504 20.0833 9.52957 18.8857C8.61143 18.6634 7.77692 18.3337 7.05265 17.9595C6.62618 18.2979 6.08669 18.5 5.5 18.5C4.11929 18.5 3 17.3807 3 16Z" fill="#5C5C5C"/>
<path d="M12.4129 12.0708L14.8504 9.44576C15.0026 9.28151 15.0416 9.04301 14.9539 8.83751C14.8646 8.63276 14.6621 8.50001 14.4379 8.50001L12.7504 8.50001L12.7504 3.75C12.7504 3.33525 12.4144 3 12.0004 3C11.5864 3 11.2504 3.33525 11.2504 3.75L11.2504 8.50001L9.56286 8.50001C9.33936 8.50001 9.13686 8.63276 9.04686 8.83751C9.01611 8.91026 9.00036 8.98601 9.00036 9.06251C9.00036 9.20201 9.05211 9.33926 9.15036 9.44576L11.5879 12.0708C11.6951 12.1848 11.8444 12.25 12.0004 12.25C12.1564 12.25 12.3064 12.1848 12.4129 12.0708Z" fill="#5C5C5C"/>
</svg>
