<svg width="16" height="16" viewBox="0 0 16 16" fill="none" xmlns="http://www.w3.org/2000/svg">
<path d="M7.99264 9.2C8.75065 9.2 9.47761 8.88393 10.0136 8.32132C10.5496 7.75871 10.8507 6.99565 10.8507 6.2C10.8507 5.40435 10.5496 4.64129 10.0136 4.07868C9.47761 3.51607 8.75065 3.2 7.99264 3.2C7.23464 3.2 6.50768 3.51607 5.97168 4.07868C5.43569 4.64129 5.13457 5.40435 5.13457 6.2C5.13457 6.99565 5.43569 7.75871 5.97168 8.32132C6.50768 8.88393 7.23464 9.2 7.99264 9.2ZM8.56426 11.6H9.13587C9.28747 11.6 9.43287 11.6632 9.54006 11.7757C9.64726 11.8883 9.70749 12.0409 9.70749 12.2C9.70749 12.3591 9.64726 12.5117 9.54006 12.6243C9.43287 12.7368 9.28747 12.8 9.13587 12.8H8.56426L8.56426 13.4C8.56426 13.5591 8.50403 13.7117 8.39684 13.8243C8.28964 13.9368 8.14425 14 7.99264 14C7.84104 14 7.69565 13.9368 7.58845 13.8243C7.48125 13.7117 7.42103 13.5591 7.42103 13.4V12.8H6.84942C6.69782 12.8 6.55242 12.7368 6.44522 12.6243C6.33803 12.5117 6.2778 12.3591 6.2778 12.2C6.2778 12.0409 6.33803 11.8883 6.44522 11.7757C6.55242 11.6632 6.69782 11.6 6.84942 11.6H7.42103L7.42103 10.4C7.42103 10.3856 7.42103 10.3718 7.42217 10.358C6.42254 10.2043 5.51528 9.65938 4.88245 8.83271C4.24962 8.00604 3.93804 6.95874 4.01024 5.90097C4.08244 4.8432 4.53307 3.85322 5.27171 3.12969C6.01034 2.40616 6.98234 2.0026 7.99264 2C9.0054 1.9984 9.98106 2.39996 10.7229 3.12371C11.4647 3.84745 11.9174 4.83953 11.9898 5.89986C12.0621 6.9602 11.7488 8.00989 11.1128 8.83724C10.4769 9.66459 9.56575 10.208 8.56312 10.358L8.56426 10.4V11.6Z" fill="#EB579E"/>
</svg>
