<svg width="16" height="16" viewBox="0 0 16 16" fill="none" xmlns="http://www.w3.org/2000/svg">
<path d="M12.4269 2L3.57331 2C2.70585 2 2 2.70585 2 3.57349L2 12.4261C2 13.294 2.70566 14 3.57331 14L12.4269 14C13.2943 14 14 13.2942 14 12.4261L14 3.57349C14 2.70585 13.2943 2 12.4269 2ZM11.6883 9.22994H9.22975V11.6883H6.77177V9.22994H4.31246L4.31246 6.77006L6.77177 6.77006L6.77177 4.3117L9.22975 4.3117V6.77006H11.6883V9.22994Z" fill="#55CF61"/>
<circle cx="13.3332" cy="13.3332" r="2.66667" fill="white"/>
<path d="M13.8598 14.1682H12.8061L12.6058 14.7692H11.9668L13.0525 11.8525H13.6094L14.7012 14.7692H14.0621L13.8598 14.1682ZM12.9684 13.6815H13.6976L13.331 12.5897L12.9684 13.6815Z" fill="#55CF61"/>
</svg>
