<svg width="24" height="24" viewBox="0 0 24 24" fill="none" xmlns="http://www.w3.org/2000/svg">
<path d="M12 3C10.8181 3 9.64778 3.23279 8.55585 3.68508C7.46392 4.13738 6.47177 4.80031 5.63604 5.63604C3.94821 7.32387 3 9.61305 3 12C3 14.3869 3.94821 16.6761 5.63604 18.364C6.47177 19.1997 7.46392 19.8626 8.55585 20.3149C9.64778 20.7672 10.8181 21 12 21C14.3869 21 16.6761 20.0518 18.364 18.364C20.0518 16.6761 21 14.3869 21 12C21 10.8181 20.7672 9.64778 20.3149 8.55585C19.8626 7.46392 19.1997 6.47177 18.364 5.63604C17.5282 4.80031 16.5361 4.13738 15.4442 3.68508C14.3522 3.23279 13.1819 3 12 3ZM7.5 9.75C7.5 9.03 8.13 8.4 8.85 8.4C9.57 8.4 10.2 9.03 10.2 9.75C10.2 10.47 9.57 11.1 8.85 11.1C8.13 11.1 7.5 10.47 7.5 9.75ZM15.2366 15.9634C14.8571 16.3429 14.1918 16.2681 13.7216 16.0094C13.2546 15.7524 12.6547 15.6 12 15.6C11.3453 15.6 10.7454 15.7524 10.2784 16.0094C9.80822 16.2681 9.14289 16.3429 8.76337 15.9634C8.46037 15.6604 8.43318 15.1693 8.76393 14.8969C9.58509 14.2205 10.7312 13.8 12 13.8C13.2688 13.8 14.4149 14.2205 15.2361 14.8969C15.5668 15.1693 15.5396 15.6604 15.2366 15.9634ZM15.15 11.1C14.43 11.1 13.8 10.47 13.8 9.75C13.8 9.03 14.43 8.4 15.15 8.4C15.87 8.4 16.5 9.03 16.5 9.75C16.5 10.47 15.87 11.1 15.15 11.1Z" fill="#5C5C5C"/>
</svg>
