<svg width="24" height="24" viewBox="0 0 24 24" fill="none" xmlns="http://www.w3.org/2000/svg">
<path d="M11.9973 8.66537C10.1611 8.66537 8.66262 10.1639 8.66262 12.0001C8.66262 13.8364 10.1611 15.3349 11.9973 15.3349C13.8335 15.3349 15.332 13.8364 15.332 12.0001C15.332 10.1639 13.8335 8.66537 11.9973 8.66537ZM21.9989 12.0001C21.9989 10.6192 22.0114 9.25076 21.9338 7.87233C21.8563 6.27125 21.4911 4.85029 20.3203 3.6795C19.147 2.50621 17.7286 2.14346 16.1275 2.06591C14.7466 1.98836 13.3782 2.00087 11.9998 2.00087C10.6189 2.00087 9.25051 1.98836 7.8721 2.06591C6.27105 2.14346 4.85012 2.50871 3.67935 3.6795C2.50608 4.85279 2.14334 6.27125 2.06579 7.87233C1.98824 9.25327 2.00074 10.6217 2.00074 12.0001C2.00074 13.3786 1.98824 14.7495 2.06579 16.1279C2.14334 17.729 2.50858 19.15 3.67935 20.3207C4.85262 21.494 6.27105 21.8568 7.8721 21.9343C9.25301 22.0119 10.6214 21.9994 11.9998 21.9994C13.3807 21.9994 14.7491 22.0119 16.1275 21.9343C17.7286 21.8568 19.1495 21.4915 20.3203 20.3207C21.4936 19.1474 21.8563 17.729 21.9338 16.1279C22.0139 14.7495 21.9989 13.3811 21.9989 12.0001ZM11.9973 17.1311C9.15795 17.1311 6.86644 14.8395 6.86644 12.0001C6.86644 9.1607 9.15795 6.86915 11.9973 6.86915C14.8367 6.86915 17.1282 9.1607 17.1282 12.0001C17.1282 14.8395 14.8367 17.1311 11.9973 17.1311ZM17.3383 7.85732C16.6754 7.85732 16.14 7.32196 16.14 6.65901C16.14 5.99607 16.6754 5.4607 17.3383 5.4607C18.0013 5.4607 18.5366 5.99607 18.5366 6.65901C18.5368 6.81643 18.5059 6.97235 18.4458 7.11782C18.3856 7.26329 18.2974 7.39547 18.1861 7.50679C18.0748 7.6181 17.9426 7.70636 17.7971 7.76651C17.6516 7.82666 17.4957 7.85752 17.3383 7.85732Z" fill="url(#paint0_linear)"/>
<path d="M11.9973 8.66537C10.1611 8.66537 8.66262 10.1639 8.66262 12.0001C8.66262 13.8364 10.1611 15.3349 11.9973 15.3349C13.8335 15.3349 15.332 13.8364 15.332 12.0001C15.332 10.1639 13.8335 8.66537 11.9973 8.66537ZM21.9989 12.0001C21.9989 10.6192 22.0114 9.25076 21.9338 7.87233C21.8563 6.27125 21.4911 4.85029 20.3203 3.6795C19.147 2.50621 17.7286 2.14346 16.1275 2.06591C14.7466 1.98836 13.3782 2.00087 11.9998 2.00087C10.6189 2.00087 9.25051 1.98836 7.8721 2.06591C6.27105 2.14346 4.85012 2.50871 3.67935 3.6795C2.50608 4.85279 2.14334 6.27125 2.06579 7.87233C1.98824 9.25327 2.00074 10.6217 2.00074 12.0001C2.00074 13.3786 1.98824 14.7495 2.06579 16.1279C2.14334 17.729 2.50858 19.15 3.67935 20.3207C4.85262 21.494 6.27105 21.8568 7.8721 21.9343C9.25301 22.0119 10.6214 21.9994 11.9998 21.9994C13.3807 21.9994 14.7491 22.0119 16.1275 21.9343C17.7286 21.8568 19.1495 21.4915 20.3203 20.3207C21.4936 19.1474 21.8563 17.729 21.9338 16.1279C22.0139 14.7495 21.9989 13.3811 21.9989 12.0001ZM11.9973 17.1311C9.15795 17.1311 6.86644 14.8395 6.86644 12.0001C6.86644 9.1607 9.15795 6.86915 11.9973 6.86915C14.8367 6.86915 17.1282 9.1607 17.1282 12.0001C17.1282 14.8395 14.8367 17.1311 11.9973 17.1311ZM17.3383 7.85732C16.6754 7.85732 16.14 7.32196 16.14 6.65901C16.14 5.99607 16.6754 5.4607 17.3383 5.4607C18.0013 5.4607 18.5366 5.99607 18.5366 6.65901C18.5368 6.81643 18.5059 6.97235 18.4458 7.11782C18.3856 7.26329 18.2974 7.39547 18.1861 7.50679C18.0748 7.6181 17.9426 7.70636 17.7971 7.76651C17.6516 7.82666 17.4957 7.85752 17.3383 7.85732Z" fill="url(#paint1_linear)"/>
<path d="M11.9973 8.66537C10.1611 8.66537 8.66262 10.1639 8.66262 12.0001C8.66262 13.8364 10.1611 15.3349 11.9973 15.3349C13.8335 15.3349 15.332 13.8364 15.332 12.0001C15.332 10.1639 13.8335 8.66537 11.9973 8.66537ZM21.9989 12.0001C21.9989 10.6192 22.0114 9.25076 21.9338 7.87233C21.8563 6.27125 21.4911 4.85029 20.3203 3.6795C19.147 2.50621 17.7286 2.14346 16.1275 2.06591C14.7466 1.98836 13.3782 2.00087 11.9998 2.00087C10.6189 2.00087 9.25051 1.98836 7.8721 2.06591C6.27105 2.14346 4.85012 2.50871 3.67935 3.6795C2.50608 4.85279 2.14334 6.27125 2.06579 7.87233C1.98824 9.25327 2.00074 10.6217 2.00074 12.0001C2.00074 13.3786 1.98824 14.7495 2.06579 16.1279C2.14334 17.729 2.50858 19.15 3.67935 20.3207C4.85262 21.494 6.27105 21.8568 7.8721 21.9343C9.25301 22.0119 10.6214 21.9994 11.9998 21.9994C13.3807 21.9994 14.7491 22.0119 16.1275 21.9343C17.7286 21.8568 19.1495 21.4915 20.3203 20.3207C21.4936 19.1474 21.8563 17.729 21.9338 16.1279C22.0139 14.7495 21.9989 13.3811 21.9989 12.0001ZM11.9973 17.1311C9.15795 17.1311 6.86644 14.8395 6.86644 12.0001C6.86644 9.1607 9.15795 6.86915 11.9973 6.86915C14.8367 6.86915 17.1282 9.1607 17.1282 12.0001C17.1282 14.8395 14.8367 17.1311 11.9973 17.1311ZM17.3383 7.85732C16.6754 7.85732 16.14 7.32196 16.14 6.65901C16.14 5.99607 16.6754 5.4607 17.3383 5.4607C18.0013 5.4607 18.5366 5.99607 18.5366 6.65901C18.5368 6.81643 18.5059 6.97235 18.4458 7.11782C18.3856 7.26329 18.2974 7.39547 18.1861 7.50679C18.0748 7.6181 17.9426 7.70636 17.7971 7.76651C17.6516 7.82666 17.4957 7.85752 17.3383 7.85732Z" fill="url(#paint2_radial)"/>
<path d="M11.9973 8.66537C10.1611 8.66537 8.66262 10.1639 8.66262 12.0001C8.66262 13.8364 10.1611 15.3349 11.9973 15.3349C13.8335 15.3349 15.332 13.8364 15.332 12.0001C15.332 10.1639 13.8335 8.66537 11.9973 8.66537ZM21.9989 12.0001C21.9989 10.6192 22.0114 9.25076 21.9338 7.87233C21.8563 6.27125 21.4911 4.85029 20.3203 3.6795C19.147 2.50621 17.7286 2.14346 16.1275 2.06591C14.7466 1.98836 13.3782 2.00087 11.9998 2.00087C10.6189 2.00087 9.25051 1.98836 7.8721 2.06591C6.27105 2.14346 4.85012 2.50871 3.67935 3.6795C2.50608 4.85279 2.14334 6.27125 2.06579 7.87233C1.98824 9.25327 2.00074 10.6217 2.00074 12.0001C2.00074 13.3786 1.98824 14.7495 2.06579 16.1279C2.14334 17.729 2.50858 19.15 3.67935 20.3207C4.85262 21.494 6.27105 21.8568 7.8721 21.9343C9.25301 22.0119 10.6214 21.9994 11.9998 21.9994C13.3807 21.9994 14.7491 22.0119 16.1275 21.9343C17.7286 21.8568 19.1495 21.4915 20.3203 20.3207C21.4936 19.1474 21.8563 17.729 21.9338 16.1279C22.0139 14.7495 21.9989 13.3811 21.9989 12.0001ZM11.9973 17.1311C9.15795 17.1311 6.86644 14.8395 6.86644 12.0001C6.86644 9.1607 9.15795 6.86915 11.9973 6.86915C14.8367 6.86915 17.1282 9.1607 17.1282 12.0001C17.1282 14.8395 14.8367 17.1311 11.9973 17.1311ZM17.3383 7.85732C16.6754 7.85732 16.14 7.32196 16.14 6.65901C16.14 5.99607 16.6754 5.4607 17.3383 5.4607C18.0013 5.4607 18.5366 5.99607 18.5366 6.65901C18.5368 6.81643 18.5059 6.97235 18.4458 7.11782C18.3856 7.26329 18.2974 7.39547 18.1861 7.50679C18.0748 7.6181 17.9426 7.70636 17.7971 7.76651C17.6516 7.82666 17.4957 7.85752 17.3383 7.85732Z" fill="url(#paint3_radial)"/>
<defs>
<linearGradient id="paint0_linear" x1="6.66045" y1="4.52839" x2="19.4692" y2="21.6064" gradientUnits="userSpaceOnUse">
<stop stop-color="#8134AF"/>
<stop offset="1" stop-color="#DD2A7B"/>
</linearGradient>
<linearGradient id="paint1_linear" x1="7.72782" y1="2.39362" x2="15.1997" y2="26.4098" gradientUnits="userSpaceOnUse">
<stop stop-color="#515BD4"/>
<stop offset="0.340788" stop-color="#DD2A7B" stop-opacity="0"/>
</linearGradient>
<radialGradient id="paint2_radial" cx="0" cy="0" r="1" gradientUnits="userSpaceOnUse" gradientTransform="translate(5.59308 21.0729) rotate(-49.3992) scale(14.7611 13.285)">
<stop stop-color="#F58529"/>
<stop offset="1" stop-color="#FEDA77" stop-opacity="0"/>
</radialGradient>
<radialGradient id="paint3_radial" cx="0" cy="0" r="1" gradientUnits="userSpaceOnUse" gradientTransform="translate(6.12677 22.674) rotate(-57.2653) scale(8.88239)">
<stop stop-color="#FEDA77"/>
<stop offset="1" stop-color="#FEDA77" stop-opacity="0"/>
</radialGradient>
</defs>
</svg>
