<svg width="24" height="24" viewBox="0 0 24 24" fill="none" xmlns="http://www.w3.org/2000/svg">
<path d="M5.91925 2.00012C3.76397 2.00012 2 3.76405 2 5.91937V18.0815C2 20.2368 3.76393 22.0001 5.91925 22.0001H18.0814C20.2367 22.0001 22 20.2368 22 18.0815V5.91937C22 3.76409 20.2367 2.00012 18.0814 2.00012H5.91925ZM6.905 5.30052C7.93842 5.30052 8.57495 5.97894 8.5946 6.87071C8.5946 7.74279 7.93838 8.44028 6.88502 8.44028H6.86563C5.85188 8.44028 5.19666 7.74283 5.19666 6.87071C5.19666 5.97896 5.87171 5.30052 6.90498 5.30052H6.905ZM15.8105 9.46855C17.7979 9.46855 19.2878 10.7676 19.2878 13.5591V18.7703H16.2674V13.9084C16.2674 12.6867 15.8303 11.8532 14.7372 11.8532C13.9028 11.8532 13.4054 12.415 13.187 12.9577C13.1073 13.1519 13.0877 13.4231 13.0877 13.6947V18.7703H10.0673C10.0673 18.7703 10.1069 10.5345 10.0673 9.68168H13.0883V10.9687C13.4897 10.3495 14.2076 9.46853 15.8105 9.46853V9.46855ZM5.37481 9.68234H8.3952V18.7704H5.37481V9.68234Z" fill="#006087"/>
</svg>
