<svg width="24" height="24" viewBox="0 0 24 24" fill="none" xmlns="http://www.w3.org/2000/svg">
<path d="M12 3C16.9707 3 21 7.0293 21 12C21 16.9707 16.9707 21 12 21C10.522 21.0023 9.06639 20.639 7.76281 19.9425L4.53391 20.6594C3.81942 20.8181 3.18216 20.1806 3.34098 19.4662L4.05841 16.239C3.36159 14.9348 2.99801 13.4786 3.00001 12C3.00001 7.0293 7.02931 3 12 3ZM12.9 8.4C12.9 7.90294 12.4971 7.5 12 7.5C11.5029 7.5 11.1 7.90294 11.1 8.4V12.8C11.1 13.3523 11.5477 13.8 12.1 13.8H15.6C16.0971 13.8 16.5 13.397 16.5 12.9C16.5 12.4029 16.0971 12 15.6 12H12.9V8.4Z" fill="#5C5C5C"/>
</svg>
