<svg width="24" height="24" viewBox="0 0 24 24" fill="none" xmlns="http://www.w3.org/2000/svg">
<path d="M12.5 8.95852C13.9189 8.72048 15 7.4865 15 6C15 4.34315 13.6569 3 12 3C10.3431 3 9 4.34315 9 6C9 7.4865 10.0811 8.72048 11.5 8.95852V11.5H8C6.61929 11.5 5.5 12.6193 5.5 14V15.0415C4.08114 15.2795 3 16.5135 3 18C3 19.6569 4.34315 21 6 21C7.65685 21 9 19.6569 9 18C9 16.5135 7.91886 15.2795 6.5 15.0415V14C6.5 13.1716 7.17157 12.5 8 12.5H16C16.8284 12.5 17.5 13.1716 17.5 14V15.0415C16.0811 15.2795 15 16.5135 15 18C15 19.6569 16.3431 21 18 21C19.6569 21 21 19.6569 21 18C21 16.5135 19.9189 15.2795 18.5 15.0415V14C18.5 12.6193 17.3807 11.5 16 11.5H12.5V8.95852Z" fill="#F26923"/>
</svg>
