<svg width="24" height="24" viewBox="0 0 24 24" fill="none" xmlns="http://www.w3.org/2000/svg">
<path d="M15.5815 21H12.7232C12.5314 21 12.3475 20.9238 12.2118 20.7882C12.0762 20.6526 12 20.4686 12 20.2768V19.1635C12.0005 18.9925 11.9662 18.8232 11.8992 18.6659C11.8321 18.5086 11.7336 18.3666 11.6099 18.2486C11.2973 17.9437 10.8433 17.7745 10.3687 17.7862C9.51054 17.8063 8.78571 18.5616 8.78571 19.4359V20.2768C8.78571 20.4686 8.70952 20.6526 8.57389 20.7882C8.43826 20.9238 8.25431 21 8.0625 21H5.23473C4.94126 21 4.65067 20.9422 4.37954 20.8299C4.10841 20.7176 3.86205 20.553 3.65454 20.3455C3.23544 19.9264 3 19.358 3 18.7653V15.9376C3 15.7458 3.0762 15.5619 3.21182 15.4262C3.34745 15.2906 3.53141 15.2144 3.72321 15.2144H4.83656C5.2046 15.2144 5.56259 15.0569 5.84464 14.7725C6.00156 14.6143 6.12565 14.4267 6.20978 14.2204C6.2939 14.014 6.3364 13.7931 6.33482 13.5703C6.32277 12.719 5.62205 12.0002 4.80442 12.0002H3.72321C3.53141 12.0002 3.34745 11.924 3.21182 11.7884C3.0762 11.6528 3 11.4688 3 11.277V8.4493C3 8.15584 3.0578 7.86525 3.17011 7.59412C3.28241 7.323 3.44702 7.07665 3.65454 6.86914C4.07363 6.45006 4.64204 6.21462 5.23473 6.21462H7.4542C7.53944 6.21462 7.6212 6.18075 7.68148 6.12048C7.74176 6.0602 7.77562 5.97844 7.77562 5.8932V5.63285C7.77562 5.28321 7.84527 4.93707 7.98049 4.61464C8.11571 4.2922 8.31379 3.99993 8.56319 3.75488C8.81259 3.50983 9.1083 3.3169 9.43306 3.18736C9.75783 3.05783 10.1051 2.99427 10.4547 3.00041C11.8807 3.02532 13.0406 4.221 13.0406 5.66539V5.8932C13.0406 5.97844 13.0745 6.0602 13.1348 6.12048C13.195 6.18075 13.2768 6.21462 13.3621 6.21462H15.5815C15.871 6.21462 16.1576 6.27163 16.425 6.3824C16.6925 6.49317 16.9354 6.65552 17.1401 6.8602C17.3448 7.06487 17.5072 7.30786 17.6179 7.57527C17.7287 7.84269 17.7857 8.12931 17.7857 8.41877V10.6382C17.7857 10.7234 17.8196 10.8052 17.8799 10.8655C17.9401 10.9257 18.0219 10.9596 18.1071 10.9596H18.3346C19.8043 10.9596 21 12.1248 21 13.5567C21 15.0276 19.8192 16.2245 18.3675 16.2245H18.1071C18.0219 16.2245 17.9401 16.2583 17.8799 16.3186C17.8196 16.3789 17.7857 16.4607 17.7857 16.5459V18.7959C17.7857 19.0853 17.7287 19.3719 17.6179 19.6393C17.5072 19.9068 17.3448 20.1497 17.1401 20.3544C16.9354 20.5591 16.6925 20.7215 16.425 20.8322C16.1576 20.943 15.871 21 15.5815 21Z" fill="#FEDA77"/>
</svg>
