<svg width="16" height="16" viewBox="0 0 16 16" fill="none" xmlns="http://www.w3.org/2000/svg">
<path d="M10.3877 14L8.48214 14C8.35427 14 8.23164 13.9492 8.14122 13.8588C8.0508 13.7684 8 13.6457 8 13.5179L8 12.7757C8.00036 12.6617 7.97749 12.5488 7.93277 12.4439C7.88805 12.3391 7.82243 12.2444 7.73991 12.1658C7.53152 11.9625 7.22884 11.8497 6.9125 11.8575C6.34036 11.8709 5.85714 12.3744 5.85714 12.9573V13.5179C5.85714 13.6457 5.80635 13.7684 5.71593 13.8588C5.62551 13.9492 5.50287 14 5.375 14H3.48982C3.29418 14 3.10044 13.9615 2.91969 13.8866C2.73894 13.8117 2.5747 13.702 2.43636 13.5637C2.15696 13.2843 2 12.9053 2 12.5102L2 10.6251C2 10.4972 2.0508 10.3746 2.14122 10.2842C2.23164 10.1937 2.35427 10.1429 2.48214 10.1429H3.22438C3.46973 10.1429 3.70839 10.0379 3.89643 9.84831C4.00104 9.74286 4.08377 9.61777 4.13985 9.48023C4.19593 9.3427 4.22427 9.19543 4.22321 9.0469C4.21518 8.47932 3.74804 8.00013 3.20295 8.00013H2.48214C2.35427 8.00013 2.23164 7.94934 2.14122 7.85892C2.0508 7.7685 2 7.64587 2 7.518L2 5.63287C2 5.43723 2.03854 5.2435 2.11341 5.06275C2.18828 4.882 2.29802 4.71777 2.43636 4.57943C2.71575 4.30004 3.0947 4.14308 3.48982 4.14308H4.96946C5.0263 4.14308 5.0808 4.1205 5.12099 4.08032C5.16117 4.04013 5.18375 3.98563 5.18375 3.9288V3.75523C5.18375 3.52214 5.23018 3.29138 5.32032 3.07642C5.41047 2.86147 5.54253 2.66662 5.70879 2.50325C5.87506 2.33988 6.0722 2.21127 6.28871 2.12491C6.50522 2.03855 6.73676 1.99618 6.96982 2.00027C7.92045 2.01688 8.69375 2.814 8.69375 3.77693V3.9288C8.69375 3.98563 8.71633 4.04013 8.75651 4.08032C8.7967 4.1205 8.8512 4.14308 8.90804 4.14308H10.3877C10.5807 4.14308 10.7717 4.18109 10.95 4.25493C11.1283 4.32878 11.2903 4.43702 11.4267 4.57347C11.5632 4.70991 11.6714 4.8719 11.7453 5.05018C11.8191 5.22846 11.8571 5.41954 11.8571 5.61251V7.09212C11.8571 7.14895 11.8797 7.20345 11.9199 7.24364C11.9601 7.28382 12.0146 7.3064 12.0714 7.3064H12.223C13.2029 7.3064 14 8.08317 14 9.03779C14 10.0184 13.2128 10.8163 12.245 10.8163H12.0714C12.0146 10.8163 11.9601 10.8389 11.9199 10.8791C11.8797 10.9193 11.8571 10.9738 11.8571 11.0306V12.5306C11.8571 12.7235 11.8191 12.9146 11.7453 13.0929C11.6714 13.2712 11.5632 13.4332 11.4267 13.5696C11.2903 13.7061 11.1283 13.8143 10.95 13.8881C10.7717 13.962 10.5807 14 10.3877 14Z" fill="#EB545D"/>
</svg>
