<svg width="24" height="24" viewBox="0 0 24 24" fill="none" xmlns="http://www.w3.org/2000/svg">
<path d="M8.4375 3H5.0625C3.92475 3 3 3.92475 3 5.0625V18.9375C3 20.0753 3.92475 21 5.0625 21H8.4375C9.57525 21 10.5 20.0753 10.5 18.9375V5.0625C10.5 3.92475 9.57525 3 8.4375 3Z" fill="#5C5C5C"/>
<path d="M20.8208 11.5871L18.1958 9.14964C18.0315 8.99739 17.793 8.95839 17.5875 9.04614C17.3828 9.13539 17.25 9.33789 17.25 9.56214V11.2496H13.5C13.0853 11.2496 12.75 11.5856 12.75 11.9996C12.75 12.4136 13.0853 12.7496 13.5 12.7496H17.25V14.4371C17.25 14.6606 17.3828 14.8631 17.5875 14.9531C17.6603 14.9839 17.736 14.9996 17.8125 14.9996C17.952 14.9996 18.0893 14.9479 18.1958 14.8496L20.8208 12.4121C20.9348 12.3049 21 12.1556 21 11.9996C21 11.8436 20.9348 11.6936 20.8208 11.5871Z" fill="#5C5C5C"/>
</svg>
