<svg width="16" height="16" viewBox="0 0 16 16" fill="none" xmlns="http://www.w3.org/2000/svg">
<path d="M8 14C11.3084 14 14 11.3084 14 8C14 4.6916 11.3084 2 8 2C4.6916 2 2 4.6916 2 8C2 11.3084 4.6916 14 8 14ZM10.0958 6.2C10.2154 6.19694 10.3345 6.21787 10.4459 6.26155C10.5573 6.30523 10.6588 6.37078 10.7445 6.45432C10.8302 6.53787 10.8983 6.63772 10.9447 6.748C10.9912 6.85827 11.0151 6.97674 11.0151 7.09641C11.015 7.21608 10.991 7.33453 10.9445 7.44477C10.898 7.55502 10.8298 7.65483 10.7441 7.73831C10.6583 7.8218 10.5568 7.88728 10.4453 7.93088C10.3339 7.97449 10.2148 7.99534 10.0952 7.9922C9.86156 7.98608 9.63954 7.88894 9.47648 7.72149C9.31342 7.55404 9.22221 7.32953 9.22229 7.09581C9.22237 6.86208 9.31373 6.63763 9.4769 6.47029C9.64007 6.30296 9.86215 6.20597 10.0958 6.2ZM7.5152 10.3514C7.83521 10.4156 8.16479 10.4156 8.4848 10.3514C8.6366 10.3202 8.7878 10.2728 8.9348 10.2116C9.0752 10.1516 9.2132 10.0772 9.3422 9.9908C9.467 9.9056 9.5864 9.8072 9.6968 9.6974C9.87747 9.51772 10.1616 9.45765 10.3729 9.60002L10.4876 9.67727C10.7622 9.86232 10.8379 10.2394 10.6099 10.4796C10.4304 10.6687 10.2305 10.8382 10.0136 10.985C9.62338 11.2483 9.18532 11.4326 8.7242 11.5274C8.24616 11.6234 7.75377 11.6232 7.2758 11.5268C6.81455 11.4334 6.37646 11.2492 5.987 10.985C5.77034 10.8381 5.57062 10.6686 5.39103 10.4797C5.16235 10.2392 5.23787 9.86125 5.5131 9.67583L5.62761 9.59868C5.83853 9.45658 6.12168 9.51627 6.302 9.6956C6.63328 10.0285 7.0552 10.2566 7.5152 10.3514ZM5.9 6.2C6.01823 6.20004 6.13529 6.22337 6.24451 6.26865C6.35372 6.31393 6.45295 6.38028 6.53652 6.4639C6.62009 6.54753 6.68638 6.6468 6.73158 6.75605C6.77679 6.86529 6.80004 6.98237 6.8 7.1006C6.79996 7.21883 6.77663 7.33589 6.73135 7.44511C6.68607 7.55432 6.61972 7.65355 6.5361 7.73712C6.45247 7.82069 6.3532 7.88698 6.24395 7.93218C6.13471 7.97739 6.01763 8.00064 5.8994 8.0006C5.66063 8.00052 5.43166 7.90559 5.26288 7.7367C5.0941 7.5678 4.99932 7.33877 4.9994 7.1C4.99948 6.86123 5.09441 6.63226 5.2633 6.46348C5.4322 6.2947 5.66123 6.19992 5.9 6.2Z" fill="#55CF61"/>
</svg>
