<svg width="24" height="24" viewBox="0 0 24 24" fill="none" xmlns="http://www.w3.org/2000/svg">
<path fill-rule="evenodd" clip-rule="evenodd" d="M13 7C13 4.79 14.79 3 17 3C19.21 3 21 4.79 21 7C21 9.21 19.21 11 17 11C14.79 11 13 9.21 13 7ZM18.12 5.5C18.12 4.89 17.62 4.38 17 4.38C16.38 4.38 15.88 4.89 15.88 5.5C15.88 6.11 16.39 6.62 17 6.62C17.61 6.62 18.12 6.11 18.12 5.5ZM14.76 8.58C15.26 9.29 16.07 9.75 17 9.75C17.93 9.75 18.74 9.29 19.24 8.58C19.19 7.86 17.73 7.5 17 7.5C16.27 7.5 14.81 7.86 14.76 8.58Z" fill="#F26923"/>
<path fill-rule="evenodd" clip-rule="evenodd" d="M13 17C13 14.79 14.79 13 17 13C19.21 13 21 14.79 21 17C21 19.21 19.21 21 17 21C14.79 21 13 19.21 13 17ZM18.12 15.5C18.12 14.89 17.62 14.38 17 14.38C16.38 14.38 15.88 14.89 15.88 15.5C15.88 16.11 16.39 16.62 17 16.62C17.61 16.62 18.12 16.11 18.12 15.5ZM14.76 18.58C15.26 19.29 16.07 19.75 17 19.75C17.93 19.75 18.74 19.29 19.24 18.58C19.19 17.86 17.73 17.5 17 17.5C16.27 17.5 14.81 17.86 14.76 18.58Z" fill="#F26923"/>
<path fill-rule="evenodd" clip-rule="evenodd" d="M7 13C4.79 13 3 14.79 3 17C3 19.21 4.79 21 7 21C9.21 21 11 19.21 11 17C11 14.79 9.21 13 7 13ZM7 14.38C7.62 14.38 8.12 14.89 8.12 15.5C8.12 16.11 7.61 16.62 7 16.62C6.39 16.62 5.88 16.11 5.88 15.5C5.88 14.89 6.38 14.38 7 14.38ZM7 19.75C6.07 19.75 5.26 19.29 4.76 18.58C4.81 17.86 6.27 17.5 7 17.5C7.73 17.5 9.19 17.86 9.24 18.58C8.74 19.29 7.93 19.75 7 19.75Z" fill="#F26923"/>
<path fill-rule="evenodd" clip-rule="evenodd" d="M3 7C3 4.79 4.79 3 7 3C9.21 3 11 4.79 11 7C11 9.21 9.21 11 7 11C4.79 11 3 9.21 3 7ZM8.12 5.5C8.12 4.89 7.62 4.38 7 4.38C6.38 4.38 5.88 4.89 5.88 5.5C5.88 6.11 6.39 6.62 7 6.62C7.61 6.62 8.12 6.11 8.12 5.5ZM4.76 8.58C5.26 9.29 6.07 9.75 7 9.75C7.93 9.75 8.74 9.29 9.24 8.58C9.19 7.86 7.73 7.5 7 7.5C6.27 7.5 4.81 7.86 4.76 8.58Z" fill="#F26923"/>
</svg>
